<?xml version="1.0" encoding="UTF-8" standalone="no"?>
<!DOCTYPE svg PUBLIC "-//W3C//DTD SVG 1.1//EN" "http://www.w3.org/Graphics/SVG/1.1/DTD/svg11.dtd"[
     <!ENTITY stroke_color "#000000">
     <!ENTITY fill_color "#FFFFFF">
 ]>
<svg
   xmlns:dc="http://purl.org/dc/elements/1.1/"
   xmlns:cc="http://creativecommons.org/ns#"
   xmlns:rdf="http://www.w3.org/1999/02/22-rdf-syntax-ns#"
   xmlns:svg="http://www.w3.org/2000/svg"
   xmlns="http://www.w3.org/2000/svg"
   xmlns:sodipodi="http://sodipodi.sourceforge.net/DTD/sodipodi-0.dtd"
   xmlns:inkscape="http://www.inkscape.org/namespaces/inkscape"
   version="1.1"
   width="55"
   height="55"
   viewBox="0 0 55 55"
   id="svg2"
   xml:space="preserve"
   inkscape:version="0.48.4 r9939"
   sodipodi:docname="row-insert-debit.svg">
    <defs
     id="defs3356" />
<g
     transform="matrix(1.0967054,0,0,1.0967054,5.4642514,12.153414)"
     id="g3422"><path
       style="fill:&fill_color;;fill-rule:evenodd"
       inkscape:connector-curvature="0"
       clip-rule="evenodd"
       d="m 38.887,15.727 c 0.816,2.631 0.029,4.654 -1.695,6.414 -1.42,1.447 -3.151,2.414 -4.998,3.193 -1.639,0.691 -3.342,1.151 -5.085,1.521 -3.542,0.749 -7.108,0.835 -10.687,0.521 -1.431,-0.125 -2.841,-0.484 -4.26,-0.744 C 9.78,26.194 7.568,25.296 5.496,24.067 3.851,23.091 2.438,21.864 1.529,20.126 0.929,18.979 0.739,17.08 1.321,15.859 c 0.09,0.08 0.204,0.135 0.25,0.225 0.998,1.957 2.664,3.201 4.519,4.238 2.306,1.288 4.802,2.02 7.377,2.543 3.023,0.611 6.078,0.723 9.135,0.542 2.29,-0.136 4.554,-0.521 6.77,-1.175 1.919,-0.566 3.771,-1.27 5.472,-2.336 1.549,-0.973 2.929,-2.117 3.775,-3.791 0.051,-0.1 0.129,-0.185 0.268,-0.378 z"
       id="path3424" /><path
       style="fill:&fill_color;;fill-rule:evenodd"
       inkscape:connector-curvature="0"
       clip-rule="evenodd"
       d="M 38.928,8.595 C 38.488,7.26 37.574,6.213 36.511,5.324 34.148,3.346 31.346,2.266 28.407,1.528 25.69,0.844 22.925,0.352 20.114,0.454 20.11,0.403 20.106,0.505 20.102,0.454 18.188,0.642 16.267,0.774 14.363,1.03 11.537,1.41 8.832,2.241 6.307,3.579 4.479,4.547 2.84,5.756 1.755,7.586 0.881,9.063 0.707,10.629 1.266,12.227 c 0.573,1.633 1.753,2.822 3.123,3.828 2.588,1.9 5.558,2.898 8.656,3.535 3.501,0.721 7.037,0.887 10.602,0.52 3.398,-0.35 6.691,-1.078 9.767,-2.604 1.769,-0.876 3.381,-1.97 4.591,-3.581 1.219,-1.626 1.556,-3.413 0.923,-5.33 z M 29.315,11 H 10.864 c -1.098,0 -1.889,-0.314 -1.889,-1 0,-0.686 0.791,-1 1.889,-1 h 18.451 c 1.099,0 1.89,0.314 1.89,1 0,0.686 -0.791,1 -1.89,1 z"
       id="path3426" /></g></svg>
